<svg width="200" height="200" viewBox="0 0 200 200" fill="none" xmlns="http://www.w3.org/2000/svg">
<path d="M172.606 128.159C186.546 96.5098 170.863 60.6957 137.756 48.2025C104.648 34.8763 67.184 49.8682 54.1152 81.5178C40.1751 113.167 55.8577 148.982 88.9654 161.475C121.202 173.968 158.666 158.976 172.606 128.159Z" fill="#111111"/>
<path d="M155.016 121.937C164.819 98.6527 153.79 72.3051 130.506 63.1141C107.222 53.3104 80.8749 64.3396 71.6839 87.6235C61.8802 110.907 72.9094 137.255 96.1933 146.446C118.864 155.637 145.212 144.608 155.016 121.937Z" fill="#111111"/>
<path d="M113.356 31.2519C88.2337 31.2519 65.5625 44.1194 52.6951 63.7268H35.5386C29.4112 63.1141 24.5094 68.016 24.5094 74.1433C24.5094 80.2707 29.4112 85.1725 35.5386 85.1725H38.6022C44.7296 85.1725 49.6314 90.0744 49.6314 96.2017C49.6314 102.329 44.7296 107.231 38.6022 107.231H11.0292C4.90187 107.231 0 112.133 0 118.26C0 124.387 4.90187 129.289 11.0292 129.289H35.5386C41.6659 129.289 46.5678 134.191 46.5678 140.319C46.5678 146.446 41.6659 151.348 35.5386 151.348H24.5094C18.382 151.348 13.4801 156.25 13.4801 162.377C13.4801 168.504 18.382 173.406 24.5094 173.406H83.3318C92.5228 177.695 102.939 180.146 113.969 180.146C154.409 180.146 187.497 147.059 187.497 106.618C187.497 66.1778 153.796 30.6392 113.356 31.2519ZM113.356 158.088C83.9445 158.088 60.0479 134.191 60.0479 104.78C60.0479 75.3688 83.9445 51.4722 113.356 51.4722C142.767 51.4722 166.664 75.3688 166.664 104.78C166.664 134.191 142.767 158.088 113.356 158.088Z" fill="#D4AF37"/>
<path d="M166.659 104.78H187.521C187.521 84.5594 178.914 66.1774 165.434 52.6973L151.061 67.0431C160.252 77.4596 165.434 88.2358 166.659 104.78Z" fill="#D4AF37"/>
<path d="M166.628 104.779C165.974 122.422 159.562 132.648 149.108 144.409L164.622 159.944C178.997 145.569 187.216 128.86 187.492 104.779H166.628Z" fill="#D4AF37"/>
<path d="M113.354 51.4702C127.398 51.7219 140.299 56.3765 151.052 67.0806L165.437 52.6957C151.957 39.2155 135.794 31.25 113.354 31.25V46.5683V51.4702Z" fill="#D4AF37"/>
<path d="M106.616 74.7553C106.616 71.6916 109.067 68.6279 112.744 68.6279C115.807 68.6279 118.871 71.0789 118.871 74.7553V103.554L137.866 110.907C140.929 112.132 142.596 115.817 141.542 118.872C140.317 121.936 136.64 123.774 133.576 122.549L110.293 113.357C107.842 112.745 106.616 110.294 106.616 107.843V74.7553Z" fill="white"/>
<path d="M136.87 7.50098H94.3701C88.1201 7.50098 82.4951 13.126 82.4951 20.001V27.501H148.745V20.001C148.745 13.126 143.745 7.50098 136.87 7.50098Z" fill="#D4AF37"/>
</svg>
