<svg width="200" height="200" viewBox="0 0 200 200" fill="none" xmlns="http://www.w3.org/2000/svg">
<path d="M25.3174 56.25H175.317V72.4432C175.317 73.8281 166.746 75 155.603 75H45.0317C33.8888 75 25.3174 73.8281 25.3174 72.4432V56.25Z" fill="#111111"/>
<path d="M175.339 62.5183H25.3391L25 162.502C25 173.752 32.5 181.253 43.75 181.253H156.25C166.875 181.253 175.625 173.752 175.625 162.502L175.339 62.5183Z" fill="#D4AF37"/>
<path d="M43.75 56.25H156.25V148.011C156.25 155.859 149.821 162.5 141.464 162.5H58.5357C50.1786 162.5 43.75 155.859 43.75 148.011V56.25Z" fill="#111111"/>
<path d="M12.5 46.2476V56.2476H70.625V28.7476H31.25C21.25 28.7476 13.125 36.8726 12.5 46.2476Z" fill="#D4AF37"/>
<path d="M83.1274 70.6238H116.252C120.627 70.6238 124.377 66.8738 124.377 62.4988V51.8738H74.3774V62.4988C75.0024 66.8738 78.7524 70.6238 83.1274 70.6238Z" fill="white"/>
<path d="M128.745 28.7476H69.9951V56.2476H128.745V28.7476Z" fill="#D4AF37"/>
<path d="M187.498 46.2476C186.873 36.2476 178.748 28.7476 168.748 28.7476H128.748V56.2476H187.498V46.2476Z" fill="#D4AF37"/>
<path d="M107.71 91.4003H94.9472V85.5017C94.9472 81.8151 91.5885 80.3404 88.9017 81.8151L70.7652 94.3495C68.0783 95.8242 68.0783 100.248 70.7652 101.723L88.9017 114.257C91.5885 115.732 94.9472 114.257 94.9472 110.571V103.935H107.71C114.427 103.935 119.801 109.833 119.801 117.206C119.801 124.58 114.427 130.478 107.71 130.478H77.4824C74.1238 130.478 71.4369 133.427 71.4369 137.114C71.4369 140.801 74.1238 143.75 77.4824 143.75H107.71C121.144 143.75 131.22 131.953 131.22 117.944C131.892 103.197 121.144 91.4003 107.71 91.4003Z" fill="white"/>
</svg>
