<svg width="200" height="200" viewBox="0 0 200 200" fill="none" xmlns="http://www.w3.org/2000/svg">
<path d="M161.58 74.9701C158.464 67.1964 145.997 65.6417 140.543 60.2002C135.088 54.7586 132.751 42.3208 125.738 39.2114C117.946 36.1019 108.596 43.0982 100.025 43.0982C92.2333 43.0982 82.1039 35.3245 74.3121 39.2114C66.5203 42.3208 64.9619 54.7586 59.5077 60.2002C54.0534 65.6417 41.5865 67.9738 38.4698 74.9701C35.353 82.7437 42.3657 92.0721 42.3657 100.623C42.3657 108.397 34.5739 118.502 38.4698 126.276C41.5865 134.05 54.0534 135.604 59.5077 141.046C64.9619 146.487 67.2995 158.925 74.3121 162.035C82.1039 165.144 91.4541 158.148 100.025 158.148C107.817 158.148 117.946 165.922 125.738 162.035C133.53 158.925 135.088 146.487 140.543 141.046C145.997 135.604 158.464 133.272 161.58 126.276C164.697 118.502 157.685 109.174 157.685 100.623C156.905 92.8494 164.697 82.7437 161.58 74.9701Z" fill="#111111"/>
<path d="M81.25 121.875H77.0833C72.3214 121.875 68.75 118.192 68.75 113.281V96.0938C68.75 91.183 72.3214 87.5 77.0833 87.5H81.25V121.875Z" fill="white"/>
<path d="M131.036 97.7941L127.305 118.35C126.683 122.582 122.951 125 118.597 125H100.561C96.2073 125 91.8536 123.791 87.5 121.977V88.1209L97.4512 70.5882C98.695 68.7745 101.183 68.1699 103.049 69.3791L104.915 70.5882C108.024 72.402 109.268 76.0294 108.646 79.6569L106.78 88.1209H122.329C127.927 88.1209 132.28 92.9575 131.036 97.7941Z" fill="white"/>
<path d="M180.174 66.5942C175.922 56.2688 160.13 54.4467 152.842 47.1582C145.553 39.8696 143.124 24.0778 133.406 19.8262C123.688 15.5745 110.933 25.2926 100 25.2926C89.6746 25.2926 76.9197 15.5745 66.5942 19.8262C56.2688 24.0778 54.4467 39.8696 47.1582 47.1582C39.8696 54.4467 24.0778 56.8762 19.8262 66.5942C15.5745 76.3123 25.2926 89.0672 25.2926 100C25.2926 110.325 15.5745 123.08 19.8262 133.406C24.0778 143.731 39.8696 145.553 47.1582 152.842C54.4467 160.13 56.8762 175.922 66.5942 180.174C76.3123 184.425 89.0672 174.707 100 174.707C110.325 174.707 123.08 184.425 133.406 180.174C143.731 175.922 145.553 160.13 152.842 152.842C160.13 145.553 175.922 143.124 180.174 133.406C184.425 123.688 174.707 110.933 174.707 100C174.707 89.0672 184.425 76.3123 180.174 66.5942ZM156.486 122.473C153.449 129.154 142.516 130.976 137.657 135.835C132.798 140.694 130.976 152.234 124.295 154.664C117.614 157.093 108.503 151.02 101.215 151.02C93.9262 151.02 84.8156 157.701 78.1344 154.664C71.4533 151.627 69.6311 140.694 64.7721 135.835C59.9131 130.976 48.3729 129.154 45.9434 122.473C42.9065 115.184 49.5877 106.681 49.5877 99.3926C49.5877 92.1041 42.9065 82.9934 45.9434 76.3123C48.9803 69.6311 59.9131 67.809 64.7721 62.95C69.6311 58.091 71.4533 46.5508 78.1344 44.1213C85.423 41.0844 93.9262 47.7655 101.215 47.7655C108.503 47.7655 117.614 41.0844 124.295 44.1213C130.976 47.1582 132.798 58.091 137.657 62.95C142.516 67.809 154.057 69.6311 156.486 76.3123C159.523 83.6008 152.842 92.1041 152.842 99.3926C152.234 106.681 158.916 115.792 156.486 122.473Z" fill="#D4AF37"/>
<path d="M180.147 133.41C184.357 123.261 175.28 112.167 174.814 100.744V100.109H152.562C152.562 100.109 152.562 100.109 152.562 100.744C152.562 108.355 158.766 118.444 155.184 123.92C151.604 128.406 141.619 131.277 136.808 136.352C136.808 136.352 136.808 136.352 136.207 136.986L152.191 153.705L152.793 153.07C160.611 145.459 176.087 143.393 180.147 133.41Z" fill="#D4AF37"/>
<path d="M180.268 66.2787C176.065 56.395 160.814 54.3178 153.381 47.7005C153.381 47.7005 153.381 47.7005 152.781 47.1191L137.463 62.6728C143.876 69.0552 153.388 69.6995 156.303 75.8058C159.306 82.2011 152.779 93.0229 152.779 99.9996H174.998C175.598 90.6973 184.472 75.581 180.268 66.2787Z" fill="#D4AF37"/>
<path d="M100.597 47.7928C107.618 47.7928 118.334 41.3952 123.788 43.8542C130.225 46.898 132.774 57.2588 137.456 62.7376L152.792 47.1406C145.77 39.2267 143.192 23.1491 133.83 19.4965C123.607 15.0628 108.994 25.2403 99.9629 25.2402L100.012 47.7928H100.597Z" fill="#D4AF37"/>
</svg>
