<svg width="532" height="532" viewBox="0 0 532 532" fill="none" xmlns="http://www.w3.org/2000/svg">
<path d="M96.7127 84.0632C97.6891 83.2 97.5021 83.0878 98.5768 82.9148C100.793 83.7528 102.744 87.156 104.34 89.0549C109.86 95.6171 115.34 102.214 120.778 108.844L134.863 125.744C136 127.115 143.602 135.776 142.868 136.672C139.127 141.242 134.57 145.365 130.654 149.909C126.076 155.252 121.779 160.829 117.779 166.617C87.4777 211 78.7509 266.66 94.0142 318.189C100.666 340.688 111.595 361.69 126.204 380.05C131.732 386.957 137.324 392.856 143.424 399.19C140.244 403.907 131.896 413.29 127.997 418.038L109.974 439.871C106.682 443.861 103.276 448.194 99.8839 452.052C99.1789 451.561 98.4469 451.073 97.7811 450.535C90.4097 444.828 80.2056 433.396 74.2856 426.281C32.5147 376.091 12.4911 309.986 18.1229 245.169C22.4647 192.518 43.534 142.636 78.2509 102.816C83.2955 97.1253 90.9098 88.9455 96.7127 84.0632Z" fill="#47AB46"/>
<path d="M392.953 398.553C394.117 397.008 397 394.212 398.439 392.714C401.221 389.825 403.902 386.846 406.482 383.775C420.252 367.472 430.983 348.829 438.16 328.731C457.598 275.203 450.603 215.64 419.291 168.072C415.342 161.981 410.996 156.158 406.277 150.642C404.063 148.034 394.296 138.159 393.41 136.307C393.886 135.257 394.592 134.27 395.322 133.379C404.848 121.769 414.42 110.082 423.909 98.454C426.045 95.8342 435.178 84.1936 437.152 82.7096C438.165 82.8283 438.191 83.0761 439.155 83.7593C441.342 85.4241 443.781 87.9779 445.753 89.9498C450.426 94.597 454.897 99.4411 459.157 104.469C490.228 140.629 510.128 185.031 516.448 232.285C525.693 299.128 507.601 366.872 466.259 420.205C458.604 430.213 448.449 441.534 439.072 449.982C438.464 450.592 438.126 451.096 437.3 451.239C435.762 450.491 395.449 402.556 392.953 398.553Z" fill="#E1281E"/>
<path d="M129.154 274.731C133.855 274.432 139.832 274.58 144.654 274.583L170.772 274.572L186.91 274.57C189.417 274.572 194.258 274.445 196.593 274.837C197.153 275.346 198.292 282.635 198.679 284.267C199.512 287.724 200.557 291.13 201.809 294.463C212.281 322.359 241.498 340.924 271.296 339.436C290.103 338.407 307.736 329.97 320.338 315.971C329.816 305.435 336.188 292.642 338.334 278.539C338.739 275.874 338.207 274.674 340.752 274.614C345.023 274.513 349.33 274.559 353.593 274.57L378.32 274.601L397.545 274.575C399.483 274.575 405.335 274.445 406.821 274.783C407.214 275.707 407.099 276.409 407.078 277.417C407.11 283.321 406.136 288.922 405.117 294.717C400.683 319.969 387.406 346.192 369.425 364.599C343.34 391.534 307.604 406.972 270.112 407.5C206.31 408.159 149.575 367.87 133.215 305.632C130.778 296.364 129.054 287.031 128.97 277.417C129.017 276.521 129.05 275.619 129.154 274.731Z" fill="#FDC71A"/>
<path d="M129.112 257.77C129.45 251.691 130.278 246.384 131.462 240.438C145.365 170.608 207.052 125.609 277.692 129.64C314.134 131.877 348.234 148.362 372.623 175.532C388.591 193.365 399.592 215.081 404.522 238.505C405.673 243.775 407.099 252.522 407.078 257.895C407.081 258.981 407.216 259.601 406.671 260.389C404.73 260.62 399.893 260.503 397.714 260.503L380.829 260.511L353.923 260.519C349.197 260.519 343.496 260.662 338.833 260.431C336.827 248.449 334.531 240.011 327.65 229.524C317.218 213.735 300.974 202.702 282.453 198.824C263.576 194.898 243.913 198.806 227.972 209.652C214.456 218.954 204.495 232.566 199.716 248.263C198.554 252.083 197.828 256.285 197.06 260.231C190.779 260.607 131.937 261.041 129.358 260.148C128.925 259.407 129.077 258.662 129.112 257.77Z" fill="#804181"/>
<path d="M112.931 71.9668C165.311 30.7181 231.97 12.0423 298.156 20.072C336.241 25.1234 372.73 38.5606 404.993 59.4157C410.097 62.7194 418.384 68.2428 422.93 72.245C423.847 72.9827 423.948 72.8959 424.031 73.9537C423.145 76.4358 387.703 118.516 384.344 123.248C383.9 123.873 382.23 125.521 381.702 125.895C380.393 126.827 374.621 122.241 373.283 121.307C356.739 109.689 338.436 100.805 319.075 94.9924C275.097 82.0875 227.863 86.3331 186.892 106.873C180.049 110.301 173.422 114.142 167.046 118.375C163.607 120.669 159.842 123.578 156.34 125.807C155.988 126.031 155.018 126.004 154.704 125.691C152.005 122.995 148.487 118.554 146.143 115.726L122.222 86.6994L115.026 78.0645C113.94 76.7839 112.102 75.1899 111.703 73.6295C111.953 72.5998 111.995 72.837 112.931 71.9668Z" fill="#0975BF"/>
<path d="M380.167 409.383C381.499 409.424 381.78 409.362 382.759 410.435C384.767 412.63 386.609 414.96 388.5 417.254L398.503 429.382C407.081 439.557 415.601 449.782 424.067 460.053C422.111 462.365 415.043 467.399 412.39 469.261C390.24 484.749 365.814 496.69 339.989 504.657C275.798 524.399 208.057 516.373 148.981 485.027C142.786 481.605 115.764 465.562 112.961 460.671C113.804 458.203 150.388 414.363 155.219 409.24C156.935 410.115 159.874 412.303 161.556 413.469C165.081 415.911 168.361 418.132 172.031 420.353C188.549 430.575 206.57 438.139 225.434 442.771C268.556 453.239 314.022 447.454 353.151 426.522C358.829 423.509 364.339 420.184 369.654 416.565C372.763 414.451 376.753 411.401 379.876 409.554L380.167 409.383Z" fill="black"/>
</svg>
